<svg width="26" height="26" viewBox="0 0 26 26" fill="none" xmlns="http://www.w3.org/2000/svg">
<g clip-path="url(#clip0_345_943)">
<path d="M13.0035 -0.00195312C5.81273 -0.00195312 -0.0166016 5.82738 -0.0166016 13.0182C-0.0166016 20.2089 5.81273 26.0382 13.0035 26.0382C20.1943 26.0382 26.0236 20.2089 26.0236 13.0182C26.0236 5.82738 20.1943 -0.00195312 13.0035 -0.00195312ZM23.7715 11.8542L23.7661 11.8499C21.6689 11.6324 19.6818 10.8036 18.0515 9.46662L21.3773 6.1408C22.7172 7.77002 23.5497 9.75653 23.7715 11.8542ZM19.8412 4.60787L16.5197 7.93912C15.1822 6.30909 14.3534 4.32187 14.1364 2.22455C16.2299 2.44494 18.2131 3.27344 19.8412 4.60787ZM11.974 2.21912C12.2009 4.89356 13.2546 7.4311 14.989 9.47962L13 11.4686L6.14895 4.61762C7.80869 3.25622 9.83694 2.42113 11.974 2.21912ZM4.61663 6.15004L4.6117 6.14512L4.61714 6.14943C4.61693 6.14964 4.61678 6.14984 4.61663 6.15004L11.4681 13.0004L9.47807 14.9905C7.43077 13.2555 4.89379 12.2013 2.21975 11.9745C2.42136 9.83778 3.25595 7.80978 4.61663 6.15004ZM2.22839 14.1466V14.1423C4.3257 14.3593 6.31293 15.1881 7.94295 16.5256L4.61714 19.8514C3.28078 18.2239 2.45035 16.2407 2.22839 14.1466ZM6.15327 21.3832L9.47477 18.0574C10.8122 19.6875 11.641 21.6747 11.8581 23.772C9.76402 23.55 7.78076 22.7196 6.15327 21.3832ZM14.0259 23.7817C13.7994 21.1073 12.7451 18.5699 11.0099 16.5223L13 14.5323L19.851 21.3832C18.1915 22.7451 16.1631 23.5802 14.0259 23.7817ZM21.3806 19.8514L14.5318 13.0004L16.5208 11.0114C18.5687 12.7454 21.1054 13.7991 23.7791 14.0264C23.5771 16.1634 22.742 18.1917 21.3806 19.8514Z" fill="#686969"/>
</g>
<defs>
<clipPath id="clip0_345_943">
<rect width="26" height="26" fill="white"/>
</clipPath>
</defs>
</svg>
