<svg width="27" height="27" viewBox="0 0 27 27" fill="none" xmlns="http://www.w3.org/2000/svg">
<g clip-path="url(#clip0_318_682)">
<path d="M27 13.5C27 20.9579 20.9579 27 13.5 27C6.04206 27 0 20.9579 0 13.5C0 6.04206 6.04206 0 13.5 0C20.9579 0 27 6.04206 27 13.5Z" fill="white"/>
<path d="M26.5059 13.4998C26.5059 20.6778 20.6861 26.5059 13.4998 26.5059C6.31345 26.5059 0.493652 20.6778 0.493652 13.4998C0.493652 6.32176 6.32176 0.493652 13.4998 0.493652C20.6778 0.493652 26.5059 6.32166 26.5059 13.4998Z" fill="#006BB5"/>
<path d="M2.5025 15.7144L2.77412 16.5623H3.67139L2.93872 17.0973L3.21034 17.9287L2.5024 17.4183L1.79446 17.9287L2.05787 17.0973L1.3252 16.5623H2.23067L2.50229 15.7144H2.5025ZM24.5059 15.7144L24.7693 16.5623H25.6748L24.9421 17.0973L25.2055 17.9287L24.5058 17.4183L23.7896 17.9287L24.0612 17.0973L23.3286 16.5623H24.2258L24.5057 15.7144H24.5059ZM5.66356 20.2582L5.92697 21.1061H6.83244L6.09977 21.6412L6.36318 22.4726L5.66345 21.9622L4.9473 22.4726L5.21892 21.6412L4.48625 21.1061H5.38351L5.66334 20.2582H5.66356ZM21.6413 20.2582L21.9047 21.1061H22.8102L22.0775 21.6412L22.3409 22.4726L21.6412 21.9622L20.925 22.4726L21.1967 21.6412L20.464 21.1061H21.3612L21.6411 20.2582H21.6413ZM10.5861 23.2217L10.8577 24.0696H11.755L11.0223 24.6046L11.2939 25.436L10.586 24.9256L9.87804 25.436L10.1415 24.5964L9.40878 24.0696H10.3143L10.5859 23.2217H10.5861ZM16.5788 23.2217L16.8422 24.0696H17.7395L17.0151 24.6046L17.2785 25.436L16.5788 24.9256L15.8626 25.436L16.1343 24.5964L15.4016 24.0696H16.2989L16.5787 23.2217H16.5788Z" fill="white"/>
<path d="M23.2461 13.5657C23.2461 18.9493 18.8834 23.3121 13.4998 23.3121C8.11619 23.3121 3.75342 18.9493 3.75342 13.5657C3.75342 8.18212 8.11619 3.81935 13.4998 3.81935C18.8834 3.81114 23.2461 8.17391 23.2461 13.5657Z" fill="white"/>
<path d="M4.32983 15.4759C4.84024 17.9289 6.28074 20.028 8.37162 21.3945C10.4625 22.7609 12.9649 23.2384 15.418 22.7281C17.8628 22.2177 19.9948 20.7936 21.3366 18.6863C22.6784 16.5872 23.1559 14.0847 22.6702 11.6399C22.1845 9.18694 20.7275 7.09606 18.6284 5.72132C16.5293 4.34659 14.0268 3.87744 11.5902 4.38774C9.14544 4.89815 7.03815 6.33865 5.66342 8.42953C4.297 10.5286 3.81953 13.0311 4.32983 15.4759Z" fill="#006BB5"/>
<path d="M16.6858 6.26441C16.7187 6.62664 16.5458 6.98877 16.1837 7.32627C14.4303 6.03394 12.751 5.40009 11.113 5.40009C10.7591 5.40009 10.4133 5.42482 10.0841 5.48238C10.6027 5.26833 11.1459 5.09553 11.7057 4.98029C13.1709 4.67573 14.6609 4.74982 16.0521 5.17782C16.3566 5.44944 16.653 5.83641 16.6859 6.26441M14.8584 21.3942C16.7023 19.6985 17.5584 16.0683 18.0689 13.8951L18.1511 13.5576C18.4146 12.4546 18.8838 11.6315 19.3777 11.1293C21.2298 14.0104 20.9829 16.982 20.5136 18.8424C19.2295 20.5463 17.4021 21.7153 15.2948 22.1515C14.6939 22.275 14.0929 22.3409 13.492 22.3409C13.9366 22.1268 14.3893 21.8222 14.8584 21.3942ZM18.2087 9.06312C18.9578 8.43748 19.5587 7.9518 19.9867 7.64724C20.9087 8.65974 21.5837 9.86977 21.9624 11.2116C21.6167 10.7506 21.1721 10.3061 20.6947 10.2073C20.2831 10.125 19.8551 10.2402 19.4599 10.52C19.106 10.0344 18.6944 9.54048 18.2087 9.06301M4.88972 13.1626C5.74584 10.8742 8.86563 9.93576 10.0427 9.59005L10.0921 9.57364C10.4789 9.4584 11.0305 9.3679 11.6726 9.25255C13.1871 8.99735 15.0558 8.67637 16.1835 7.83667C16.6444 8.18238 17.1137 8.58576 17.5912 9.0385C15.0393 11.2117 11.0882 14.8501 6.87346 19.3364C5.8939 18.2169 5.2107 16.8505 4.89782 15.3523C4.77438 14.7596 4.7085 14.1587 4.7085 13.5578C4.81552 13.3355 4.88961 13.1709 4.88961 13.1626" fill="white"/>
<path d="M17.9125 8.77507C17.435 8.33054 16.9658 7.92717 16.5048 7.56504C16.9328 7.14525 17.1304 6.70072 17.0893 6.22325C17.0646 5.9351 16.9493 5.66348 16.8011 5.4248C17.3198 5.63886 17.8218 5.90227 18.3075 6.21504C18.8179 6.55254 19.2871 6.93119 19.7069 7.34278C19.2624 7.68028 18.6532 8.15774 17.9124 8.77507M15.8544 7.58966C14.7926 8.32234 13.0392 8.61858 11.6151 8.85737C10.9565 8.9726 10.3968 9.06311 9.98526 9.18666L9.9359 9.20308C8.80817 9.54058 5.9682 10.3885 4.79932 12.4381C4.96391 11.1375 5.42496 9.88628 6.16573 8.75855C6.79138 7.81193 7.61455 6.93108 8.52002 6.29723C10.5862 5.41649 12.9157 5.47405 15.8545 7.58956M20.6125 10.6023C21.2216 10.7258 21.8884 11.7548 22.2011 12.3557C22.4728 14.2819 22.1023 16.2164 21.131 17.9039C21.1803 17.6075 21.2133 17.2948 21.238 16.9655C21.3614 15.3191 21.1392 13.0801 19.6905 10.8657C20.0115 10.6353 20.3325 10.5447 20.6125 10.6023ZM17.9043 9.32641C18.3899 9.80388 18.8015 10.2896 19.1472 10.7834C18.5463 11.3596 18.0359 12.298 17.7643 13.4587L17.682 13.7962C17.1799 15.92 16.3402 19.4844 14.5868 21.0894C13.8625 21.7562 13.1545 22.1019 12.5207 22.2831C11.1707 22.1349 9.87002 21.6657 8.70114 20.9001C8.13317 20.5297 7.62276 20.1017 7.17002 19.6324C11.4176 15.1132 15.3771 11.4665 17.9041 9.3263" fill="white"/>
<path d="M15.9203 16.1669L16.1589 16.101C16.2989 16.0598 16.3976 16.0105 16.3976 15.8046C16.3976 15.6317 16.3483 15.3189 16.1424 15.3189C15.9201 15.3189 15.9201 15.6894 15.9201 15.8951V16.1667L15.9203 16.1669ZM13.0639 16.0351C13.0639 15.286 13.0391 14.6357 12.5288 14.6357C12.1172 14.6357 12.0432 15.286 12.0432 16.0351C12.0432 16.7842 12.0184 17.4345 12.5288 17.4345C12.9652 17.4345 13.0639 16.7842 13.0639 16.0351Z" fill="white"/>
<path d="M15.9201 16.1669L16.1588 16.101C16.2988 16.0599 16.3975 16.0105 16.3975 15.8047C16.3975 15.6318 16.3481 15.319 16.1423 15.319C15.92 15.319 15.92 15.6894 15.92 15.8952V16.1668L15.9201 16.1669ZM11.9854 14.3148H11.9936C12.2406 13.9362 12.7015 13.755 13.1542 13.755C14.1832 13.755 14.817 14.6441 14.817 15.8377C14.817 17.2536 13.8539 18.0932 12.6686 18.0932C10.8411 18.0932 10.1826 16.6197 10.1826 14.9157C10.1826 12.9484 11.0387 11.3267 13.1624 11.3267C13.9938 11.3267 14.6688 11.8617 14.6688 12.6767C14.6688 13.2035 14.2572 13.4669 13.8704 13.4669C13.2942 13.4669 13.1131 12.9894 13.0308 12.5696C12.9979 12.3885 13.0637 11.9935 12.7674 11.9935C12.1501 11.9935 12.0512 13.2035 12.0265 13.648L11.9854 14.3148Z" fill="white"/>
<path d="M13.0639 16.0356C13.0639 15.2865 13.0391 14.6362 12.5288 14.6362C12.1173 14.6362 12.0432 15.2865 12.0432 16.0356C12.0432 16.7847 12.0184 17.4349 12.5288 17.4349C12.9652 17.4349 13.0639 16.7847 13.0639 16.0356Z" fill="white"/>
<path d="M2.00835 11.4091C2.35406 11.4503 2.49403 11.6973 2.44467 12.15L2.40352 12.4793L2.59285 12.504C2.83153 12.5288 2.92214 12.5288 2.94676 12.3311L3.16903 12.3559L3.062 13.2449L2.83973 13.2202C2.85615 13.0227 2.77385 12.9979 2.53517 12.9732L1.84376 12.8909C1.60508 12.8662 1.51447 12.8662 1.48984 13.0638L1.26758 13.0391L1.38281 12.0595C1.44049 11.582 1.65443 11.3681 2.00846 11.4092L2.00835 11.4091ZM2.19767 12.3558C2.23061 12.0594 2.14832 11.903 1.93426 11.8783C1.75315 11.8536 1.62149 11.9688 1.58855 12.1911C1.57214 12.3474 1.62149 12.3804 1.79429 12.3968L2.18115 12.4462C2.18936 12.4132 2.18936 12.3885 2.19757 12.3557L2.19767 12.3558ZM3.3172 10.4296C3.39129 10.2485 3.30899 10.1991 3.08673 10.1085L2.44467 9.83688C2.22241 9.74637 2.1319 9.72164 2.05781 9.90276L1.85207 9.82046L2.19778 8.99728L2.39531 9.07958C2.32123 9.2607 2.40352 9.31005 2.62579 9.40066L2.79038 9.46655L3.04558 8.84922L2.88099 8.78334C2.65873 8.69283 2.56822 8.6681 2.49413 8.84922L2.2966 8.76692L2.64231 7.94375L2.84805 8.02604C2.77396 8.20716 2.85626 8.25651 3.07852 8.34712L3.72058 8.61874C3.94285 8.70925 4.03335 8.73398 4.10744 8.55286L4.31318 8.63516L3.96747 9.45834L3.76994 9.37604C3.84403 9.19492 3.76173 9.14557 3.53947 9.05496L3.25964 8.93972L3.00443 9.55705L3.28426 9.67228C3.50653 9.76279 3.59703 9.78752 3.67112 9.6064L3.86865 9.6887L3.52294 10.5119L3.3172 10.4296ZM4.18153 6.04208C4.06629 6.19846 4.13217 6.26434 4.32149 6.41252L4.88126 6.83232C5.07058 6.98049 5.15288 7.01343 5.27643 6.86526L5.45755 6.99702L4.92251 7.71316L4.73319 7.5732C4.84843 7.41681 4.78255 7.35093 4.59322 7.20276L4.03346 6.79117C3.84413 6.64299 3.76184 6.60184 3.63829 6.75823L3.45717 6.62647L3.9922 5.91032L4.18153 6.04208ZM6.19011 6.14911L6.05014 5.9762C6.19832 5.84444 6.14896 5.77046 5.99247 5.58934L5.54794 5.05431C5.39156 4.8732 5.32568 4.80732 5.16929 4.93087L5.02933 4.75796L5.71253 4.18178L5.8525 4.35469C5.70433 4.48645 5.75368 4.56043 5.90186 4.74986L6.40395 5.34256C6.51919 5.48253 6.56854 5.49895 6.71672 5.38371C6.90604 5.22733 6.98834 4.93918 6.91425 4.58527L7.11178 4.54412L7.30931 5.2027L6.18979 6.14932L6.19011 6.14911ZM8.31393 4.51096L8.22342 4.30522C8.38802 4.1982 8.37981 4.09117 8.37981 3.89364L8.33045 2.5107L8.70089 2.33779L9.72981 3.34208C9.84505 3.45732 9.91092 3.51499 10.0673 3.45732L10.1578 3.66306L9.34284 4.0335L9.25234 3.83596C9.26055 3.83596 9.26055 3.82776 9.26876 3.82776C9.38399 3.7784 9.42514 3.72894 9.3922 3.65485C9.38399 3.63012 9.36747 3.60549 9.34284 3.58897L9.15352 3.39964L8.6267 3.63832L8.65964 3.89353C8.65964 3.90994 8.66784 3.93468 8.67605 3.9512C8.70899 4.02529 8.79129 4.0335 8.91473 3.98414L9.00524 4.18167L8.31382 4.51096H8.31393ZM8.98072 3.25147L8.59386 2.83988L8.6268 3.41606L8.98072 3.25147ZM11.0716 3.17738C11.2609 3.14444 11.2691 3.05394 11.2362 2.81515L11.1374 2.12373C11.1044 1.88505 11.0715 1.80265 10.8822 1.81917L10.8492 1.59691L11.7547 1.46515C12.4461 1.36633 12.866 1.63806 12.9401 2.21424C13.0224 2.79042 12.7014 3.16086 12.0099 3.25968L11.1044 3.39144L11.0715 3.17738H11.0716ZM11.7219 2.8563C11.7466 3.03741 11.7795 3.07856 11.9605 3.05383C12.3228 3.00447 12.5121 2.72454 12.4462 2.28832C12.3886 1.852 12.1251 1.63806 11.763 1.69562C11.5737 1.72035 11.5573 1.77792 11.5819 1.95082L11.7219 2.8563ZM14.2161 2.91397C14.4137 2.9387 14.4384 2.84809 14.4713 2.60941L14.5702 1.91799C14.6031 1.67931 14.6031 1.5887 14.4056 1.55576L14.4385 1.3335L15.9285 1.54755L16.0931 2.12373L15.9119 2.18961C15.7638 1.89326 15.558 1.72035 15.2863 1.6792C15.1052 1.65447 15.0806 1.70394 15.0558 1.87674L15.0147 2.13194L15.097 2.14836C15.2863 2.17309 15.344 2.12362 15.3851 1.90968L15.5744 1.93441L15.4592 2.74117L15.2699 2.71644C15.2781 2.50238 15.2122 2.40367 15.0641 2.37894L14.9818 2.36252L14.9242 2.78232C14.8994 2.95522 14.916 3.01279 15.0971 3.03752C15.3605 3.07867 15.6733 2.94702 15.9121 2.65887L16.0684 2.77411L15.7062 3.35029L14.1833 3.12802L14.2162 2.91397H14.2161ZM17.0232 3.7042L17.1137 3.49846C17.2948 3.57255 17.3441 3.49846 17.443 3.2762L17.7228 2.64235C17.8216 2.42008 17.8462 2.33779 17.6651 2.25549L17.7556 2.04975L18.5706 2.40367L18.4801 2.60941C18.299 2.53532 18.2496 2.60941 18.1508 2.83167L17.838 3.53961C17.7639 3.7042 17.7721 3.76188 17.9368 3.83596C18.1591 3.93478 18.4555 3.87711 18.7353 3.66306L18.8587 3.81944L18.3566 4.2887L17.023 3.7042H17.0232ZM21.6082 5.02947C21.3859 5.30109 21.1061 5.29288 20.7521 5.00474L20.4969 4.799L20.3816 4.94718C20.2335 5.1365 20.1841 5.21059 20.3323 5.34235L20.1923 5.51526L19.4926 4.95549L19.6325 4.78258C19.7889 4.89782 19.8548 4.84026 20.0112 4.65914L20.4475 4.1159C20.5957 3.92658 20.645 3.85249 20.4969 3.72073L20.6368 3.54782L21.4023 4.16515C21.7646 4.45329 21.8303 4.74964 21.6081 5.02947H21.6082ZM20.7027 4.67556C20.9332 4.86488 21.1143 4.87309 21.246 4.7085C21.3612 4.56853 21.3365 4.39573 21.1637 4.25576C21.0402 4.15694 20.9825 4.18988 20.8755 4.32164L20.6285 4.6262C20.6615 4.64262 20.6862 4.65914 20.7026 4.67556H20.7027ZM21.7482 6.6512C21.8634 6.80758 21.9457 6.77464 22.1433 6.63478L22.7113 6.2314C22.9088 6.09144 22.9747 6.02566 22.8677 5.86917L23.0488 5.74573L23.5592 6.4784L23.3781 6.60184C23.2629 6.44546 23.1806 6.4784 22.9829 6.61826L22.8347 6.71708L23.2216 7.26864L23.3698 7.16982C23.5673 7.02985 23.6332 6.96408 23.5262 6.80758L23.7073 6.68414L24.2177 7.41681L24.0366 7.54026C23.9213 7.38387 23.839 7.41681 23.6414 7.55667L23.0734 7.96005C22.8759 8.10002 22.81 8.16579 22.917 8.32228L22.7359 8.44573L22.2255 7.71306L22.4066 7.58961C22.5219 7.746 22.6042 7.71306 22.8018 7.5732L23.0488 7.40029L22.6619 6.84873L22.4149 7.02164C22.2174 7.16161 22.1515 7.22738 22.2586 7.38387L22.0774 7.50732L21.567 6.77464L21.7482 6.6512ZM24.9914 9.72164C24.9173 9.54052 24.8268 9.55705 24.6045 9.64755L23.9543 9.89455C23.732 9.98505 23.6497 10.0263 23.7156 10.2156L23.5099 10.2979L23.1888 9.46655L23.3945 9.38425C23.4686 9.56536 23.5591 9.54884 23.7814 9.45834L24.4316 9.21134C24.6539 9.12084 24.7362 9.07958 24.6703 8.89857L24.8761 8.81628L25.1971 9.64766L24.9914 9.72175V9.72164ZM23.8307 11.2692L24.053 11.2362C24.1023 11.4256 24.2176 11.4503 24.3987 11.5079L25.7323 11.8701L25.7816 12.2735L24.5139 12.9649C24.374 13.039 24.2999 13.0883 24.2999 13.253L24.0776 13.286L23.9624 12.3969L24.1764 12.3722V12.3886C24.1928 12.512 24.2258 12.5697 24.2999 12.5532C24.3246 12.5532 24.3492 12.545 24.374 12.5285L24.6126 12.405L24.5386 11.8288L24.2833 11.7877C24.2669 11.7877 24.2422 11.7795 24.2257 11.7877C24.1434 11.7959 24.1104 11.87 24.1269 12.0099L23.9128 12.0347L23.8305 11.2692H23.8307ZM24.8432 12.2817L25.3536 12.0347L24.7939 11.8947L24.8432 12.2816V12.2817Z" fill="white"/>
<path d="M18.9739 14.7021C18.7682 14.7021 18.62 14.7926 18.5047 14.9162C18.4964 14.8914 18.4799 14.8585 18.4635 14.8339L18.3647 14.6445L16.9653 15.0561V15.8216H17.2617C17.2699 15.8464 17.2946 15.9121 17.2946 16.1509V17.04L17.0394 17.0729V17.9125H18.9821V17.0729L18.7269 17.04V16.7766C18.7269 16.6284 18.7599 16.3402 18.801 16.1756C18.8751 16.2004 18.9574 16.2168 19.0562 16.2168C19.4019 16.2168 19.6489 15.904 19.6489 15.4595C19.6571 15.0068 19.3855 14.7022 18.9739 14.7022V14.7021Z" fill="white"/>
<path d="M21.4107 15.5992C21.3942 15.5333 21.3859 15.5087 21.3859 15.4757C21.3859 15.2452 21.2954 14.7102 20.4475 14.7102C19.9782 14.7102 19.0564 15.0724 19.0564 15.912C19.0564 16.2248 19.1469 16.4471 19.2786 16.62C19.0975 16.727 18.9823 16.9411 18.9823 17.1962C18.9823 17.5007 19.1304 18.0029 20.1512 18.0029C21.0237 18.0029 21.5176 17.5502 21.5176 16.7681C21.5176 15.9861 21.4517 15.7639 21.4105 15.5993L21.4107 15.5992ZM11.1539 11.0882C11.1045 11.0305 11.0221 10.9894 10.9398 10.9894C10.8081 10.9894 10.7094 11.0717 10.5859 11.2034C10.1743 11.6398 9.61457 11.8702 8.9643 11.8702C8.11639 11.8702 7.22744 11.4834 6.5195 10.8001C6.46183 10.7424 6.38774 10.7178 6.31376 10.7178C5.96805 10.7178 5.87744 11.2693 5.87744 11.2775V14.0598L6.0997 14.0928C6.9393 14.2162 7.66376 14.1916 8.32224 14.0105C7.6143 14.6525 6.00909 16.3812 6.03383 18.0357C6.03383 18.3403 6.22315 18.3732 6.30545 18.3732C6.40427 18.3732 6.47004 18.3156 6.5195 18.2827C6.52771 18.2745 6.54423 18.258 6.56065 18.2498C6.79112 18.0769 7.16156 17.9864 7.58136 17.9864C7.92706 17.9864 8.27277 18.0523 8.52798 18.1757C8.57733 18.2004 8.63501 18.2251 8.70089 18.2251C8.78318 18.2251 8.85727 18.1921 8.90663 18.1346C8.99713 18.0357 8.98892 17.9123 8.98071 17.83C8.86548 16.6282 9.12889 15.3193 9.6393 14.562L9.71339 14.4468C10.1497 13.8047 11.0552 12.4629 11.2198 11.3599C11.2362 11.2529 11.2198 11.1542 11.1539 11.0883V11.0882ZM17.6075 16.3977L17.5911 16.1837C17.5829 16.0437 17.5582 15.912 17.5335 15.7885L17.5252 15.5498L17.4841 15.6157C17.2784 15.0477 16.8009 14.6937 16.2 14.6937C15.3027 14.6937 14.6689 15.4016 14.6689 16.4223C14.6689 17.2044 15.1298 17.9946 16.1506 17.9946C16.7351 17.9946 17.2701 17.6982 17.55 17.2291L17.5911 17.1632L17.5582 16.4059L17.6075 16.3977ZM16.5209 16.8834C16.4221 16.8834 16.3564 16.8175 16.3152 16.7434L16.8173 16.6117C16.6691 16.7846 16.5621 16.8751 16.5209 16.8833V16.8834Z" fill="white"/>
<path d="M14.2654 13.9365C14.216 13.8624 14.1583 13.7801 14.109 13.7142C14.5535 13.6237 14.9404 13.2779 14.9404 12.6935C14.9404 11.7798 14.1831 11.0801 13.1706 11.0801C11.1456 11.0801 9.93555 12.5206 9.93555 14.9243C9.93555 17.1057 10.9398 18.357 12.6849 18.357C14.1008 18.357 15.0886 17.3198 15.0886 15.8381C15.0803 15.1055 14.5865 14.4058 14.2654 13.9366V13.9365Z" fill="white"/>
<path d="M16.5208 17.1467C16.208 17.1467 16.0187 16.8586 15.9858 16.5705L17.3358 16.2083C17.2946 15.5497 16.916 14.9653 16.1998 14.9653C15.4343 14.9653 14.9321 15.558 14.9321 16.4388C14.9321 17.122 15.3273 17.7476 16.1504 17.7476C16.6196 17.7476 17.0806 17.5254 17.3275 17.1056L17.064 16.7845C16.9323 16.9902 16.7842 17.1467 16.5208 17.1467ZM15.9281 15.9037C15.9281 15.698 15.9281 15.3276 16.1504 15.3276C16.3561 15.3276 16.4056 15.6403 16.4056 15.8132C16.4056 16.019 16.3068 16.0684 16.1669 16.1096L15.9282 16.1755V15.9039L15.9281 15.9037Z" fill="#006BB5"/>
<path d="M18.7437 17.6653H17.3196V17.303L17.5748 17.2701V16.1506C17.5748 15.7554 17.5254 15.5579 17.2373 15.5579V15.2451L18.2498 14.9487C18.365 15.171 18.398 15.4344 18.4144 15.6896H18.4226C18.5214 15.3851 18.6531 14.9569 18.9824 14.9569C19.2705 14.9569 19.4022 15.1792 19.4022 15.4508C19.4022 15.7224 19.2787 15.9529 19.0729 15.9529C18.9247 15.9529 18.8013 15.8952 18.7354 15.8706C18.5543 15.8047 18.4884 16.6115 18.4884 16.7761V17.2618L18.7436 17.2947V17.6651L18.7437 17.6653Z" fill="#006BB5"/>
<path d="M21.1306 15.4756C21.1306 15.6978 20.9413 15.8049 20.7354 15.8049C20.4884 15.8049 20.3156 15.6073 20.2745 15.3685C20.1675 15.3685 20.0934 15.4262 20.0934 15.599C20.0934 16.0106 21.2622 15.7143 21.2622 16.7597C21.2622 17.5417 20.6943 17.7393 20.1509 17.7393C19.8216 17.7393 19.2373 17.6981 19.2373 17.1877C19.2373 16.9572 19.3607 16.7843 19.5912 16.7843C19.9451 16.7843 20.0028 17.1054 20.0686 17.3359C20.0851 17.3935 20.1345 17.41 20.1839 17.41C20.3732 17.41 20.505 17.3359 20.505 17.2124C20.505 16.7432 19.3113 16.9243 19.3113 15.9036C19.3113 15.2533 20.0768 14.9652 20.4473 14.9652C20.8671 14.9734 21.1305 15.1133 21.1305 15.4756M13.1621 13.7551C12.7094 13.7551 12.2401 13.9362 12.0015 14.3149H11.9933L12.0426 13.6563C12.0673 13.2118 12.1661 12.0018 12.7835 12.0018C13.0798 12.0018 13.014 12.3969 13.0469 12.5779C13.1292 12.9977 13.3103 13.4752 13.8865 13.4752C14.2734 13.4752 14.6849 13.22 14.6849 12.685C14.6849 11.87 14.0017 11.335 13.1786 11.335C11.0547 11.335 10.1987 12.9566 10.1987 14.924C10.1987 16.6279 10.8573 18.1015 12.6847 18.1015C13.8701 18.1015 14.8331 17.2619 14.8331 15.846C14.8331 14.6442 14.1993 13.7551 13.162 13.7551H13.1621ZM12.5365 17.4347C12.0261 17.4347 12.0508 16.7844 12.0508 16.0353C12.0508 15.2862 12.1249 14.636 12.5365 14.636C13.0469 14.636 13.0715 15.2862 13.0715 16.0353C13.0715 16.7844 12.9645 17.4347 12.5365 17.4347Z" fill="#006BB5"/>
<path d="M6.14893 11.3104V13.8375C7.56481 14.0432 9.26051 13.9116 10.4541 12.1582C10.5035 12.0841 10.5364 12.1335 10.5035 12.1994C10.166 12.8826 9.37575 13.5082 8.69254 14.0433C8.03396 14.5619 6.27237 16.4057 6.2971 18.0274C6.2971 18.1508 6.30531 18.1179 6.41234 18.0356C6.94737 17.6404 7.99281 17.624 8.63487 17.9368C8.72537 17.9779 8.73369 17.9697 8.71717 17.8463C8.59372 16.5868 8.87355 15.2121 9.4169 14.4136C9.78734 13.862 10.7916 12.4379 10.9644 11.3184C10.9808 11.2032 10.9233 11.2196 10.7751 11.3761C9.63916 12.5779 7.58943 12.545 6.26416 11.2773C6.19007 11.195 6.15713 11.2361 6.14893 11.3102" fill="#EC174C"/>
<path d="M8.61051 12.2156C9.95167 12.2156 11.0389 11.1284 11.0389 9.78727C11.0389 8.44611 9.95167 7.35889 8.61051 7.35889C7.26935 7.35889 6.18213 8.44611 6.18213 9.78727C6.18213 11.1284 7.26935 12.2156 8.61051 12.2156Z" fill="white"/>
<path d="M8.60221 7.44971L8.6845 7.70491H8.96433L8.73386 7.8695L8.81615 8.1165L8.6021 7.96832L8.38804 8.1165L8.47034 7.8695L8.24807 7.70491H8.51969L8.60199 7.44971H8.60221ZM10.2238 8.38812L10.3061 8.64332H10.5777L10.3555 8.80792L10.4378 9.06312L10.2237 8.90674L10.0015 9.06312L10.092 8.80792L9.86149 8.64332H10.1413L10.2236 8.38812H10.2238ZM9.52409 7.66376L9.60639 7.91897H9.88622L9.66395 8.08356L9.74625 8.33876L9.52399 8.18238L9.30993 8.33876L9.39223 8.08356L9.16996 7.91897H9.44158L9.52388 7.66376H9.52409ZM10.4872 9.27718L10.5695 9.53238H10.8412L10.6189 9.69697L10.7012 9.95218L10.4871 9.79579L10.2731 9.95218L10.3554 9.69697L10.1249 9.53238H10.3965L10.487 9.27718H10.4872ZM10.372 10.2156L10.4543 10.479H10.7259L10.5037 10.6436L10.586 10.8906L10.3719 10.7342L10.1578 10.8906L10.2319 10.6354L10.0097 10.479H10.2895L10.3718 10.2156H10.372ZM9.85339 10.9729L9.92747 11.2281H10.2073L9.98504 11.3927L10.0673 11.6397L9.85328 11.4833L9.63101 11.6397L9.71331 11.3927L9.49105 11.2281H9.77087L9.85317 10.9729H9.85339ZM9.03021 11.3927L9.11251 11.6479H9.39233L9.17007 11.8125L9.25237 12.0677L9.0301 11.9113L8.81605 12.0677L8.89834 11.8125L8.67608 11.6479H8.9477L9.02999 11.3927H9.03021ZM6.95585 8.30582L6.87356 8.56103H6.60194L6.8242 8.72562L6.74191 8.98082L6.95596 8.82444L7.17823 8.98082L7.09593 8.72562L7.31819 8.56103H7.03837L6.95607 8.30582H6.95585ZM7.63906 7.66376L7.55677 7.91897H7.27694L7.4992 8.08356L7.41691 8.33876L7.63917 8.18238L7.85323 8.33876L7.77093 8.08356L7.99319 7.91897H7.72157L7.63928 7.66376H7.63906ZM6.64298 9.16194L6.56068 9.41714H6.28906L6.51133 9.58174L6.42903 9.83694L6.64309 9.68056L6.85714 9.83694L6.78305 9.58174L7.00532 9.41714H6.72549L6.64319 9.16194H6.64298ZM6.72527 10.1004L6.64298 10.3638H6.37136L6.59362 10.5201L6.51133 10.7754L6.72538 10.619L6.94765 10.7754L6.86535 10.5201L7.08761 10.3638H6.80779L6.72549 10.1004H6.72527ZM7.24389 10.8742L7.1698 11.1294H6.88997L7.11224 11.294L7.02994 11.541L7.244 11.3846L7.46626 11.541L7.38397 11.294L7.60623 11.1294H7.33461L7.24411 10.8742H7.24389ZM8.06707 11.3598L7.98477 11.6151H7.70494L7.92721 11.7796L7.85312 12.0348L8.05886 11.8785L8.28112 12.0348L8.19883 11.7796L8.42109 11.6151H8.14947L8.06717 11.3598H8.06707Z" fill="#006BB5"/>
</g>
<defs>
<clipPath id="clip0_318_682">
<rect width="27" height="27" fill="white"/>
</clipPath>
</defs>
</svg>
