<svg width="22" height="22" viewBox="0 0 22 22" fill="none" xmlns="http://www.w3.org/2000/svg">
<g clip-path="url(#clip0_142_543)">
<path d="M13.0623 0.893555H8.9373C4.91543 1.71855 1.71855 4.88105 0.893555 8.9373V13.0623C1.71855 17.1186 4.91543 20.2811 8.9373 21.1061H13.0623C17.1186 20.2811 20.2811 17.0842 21.1061 13.0623V8.9373C20.2811 4.88105 17.0842 1.71855 13.0623 0.893555Z" fill="white"/>
<path d="M21.0303 13.4063C21.2183 12.618 21.313 11.8104 21.3125 11C21.3125 10.1716 21.2149 9.36582 21.0303 8.59375H13.4063V0.969721C12.618 0.781681 11.8104 0.686958 11 0.687502C10.1716 0.687502 9.36582 0.785127 8.59375 0.969721V8.59375H0.969721C0.781681 9.38201 0.686958 10.1896 0.687502 11C0.687502 11.8284 0.785127 12.6342 0.969721 13.4063H8.59375V21.0303C9.38201 21.2183 10.1896 21.313 11 21.3125C11.8284 21.3125 12.6342 21.2149 13.4063 21.0303V13.4063H21.0303Z" fill="#CE1124"/>
</g>
<defs>
<clipPath id="clip0_142_543">
<rect width="22" height="22" fill="white"/>
</clipPath>
</defs>
</svg>
