<svg width="67" height="67" viewBox="0 0 67 67" fill="none" xmlns="http://www.w3.org/2000/svg">
<circle cx="33.5" cy="33.5" r="33.5" fill="#F5F5F5"/>
<g clip-path="url(#clip0_318_906)">
<path d="M24.1636 16.4766L14.2783 33.5022L24.1636 50.5257H43.9351L53.8193 33.5022L43.9351 16.4766H24.1636Z" fill="white"/>
<path d="M43.7219 16.8428C43.827 17.0226 53.2908 33.3236 53.3948 33.5023C53.2897 33.6822 43.8259 49.981 43.7219 50.1608H24.376C24.272 49.981 14.8071 33.6811 14.7031 33.5023C14.8071 33.3225 24.272 17.0226 24.376 16.8428H43.7219Z" fill="#131F36"/>
<path d="M26.0072 19.6543L17.9668 33.5025L26.0072 47.3495H42.089L50.1304 33.5025L42.089 19.6543H26.0072Z" fill="white"/>
<path d="M41.8066 20.1416C41.9442 20.3785 49.4267 33.2651 49.5643 33.502C49.4267 33.7389 41.9442 46.6233 41.8066 46.8613H26.2903C26.1528 46.6244 18.6703 33.74 18.5327 33.502C18.6703 33.2651 26.1528 20.3785 26.2903 20.1416H41.8066Z" fill="#FAA61A"/>
<path d="M31.7889 27.1692H36.2922L38.7004 21.1631L45.2209 34.3254L38.1707 38.4666L35.9109 45.8402H32.1865L29.9343 38.4547L22.8765 34.3254L29.3861 21.1631L31.7889 27.1692Z" fill="#131F36"/>
<path d="M38.7061 32.0332V35.5757H35.376L38.7061 32.0332Z" fill="white"/>
<path d="M29.3916 35.5757V32.0332L32.7163 35.5757H29.3916Z" fill="white"/>
</g>
<defs>
<clipPath id="clip0_318_906">
<rect width="39.541" height="34.0492" fill="white" transform="translate(14.2783 16.4766)"/>
</clipPath>
</defs>
</svg>
