<svg width="67" height="67" viewBox="0 0 67 67" fill="none" xmlns="http://www.w3.org/2000/svg">
<circle cx="33.5" cy="33.5" r="33.5" fill="#F5F5F5"/>
<g clip-path="url(#clip0_318_902)">
<path d="M34.5312 29.9554C34.5312 31.9328 33.6631 33.5409 33.1616 34.0281C31.6075 35.5384 30.3256 34.4385 30.3117 35.9538C29.6064 36.5745 29.0991 37.518 28.8501 38.5956C28.8656 38.5971 28.881 38.5993 28.8961 38.6021C29.042 38.6279 29.1674 38.7091 29.2631 38.837C31.237 37.2739 34.2763 36.4519 36.599 36.9623C37.3376 37.1245 37.9641 37.3894 38.4384 37.7948C37.725 36.6738 36.6345 35.8085 35.3456 35.3595C35.0396 35.2529 34.4957 35.1307 34.4957 34.1662C34.4957 32.3658 36.5227 33.7656 37.8582 31.8047C37.9234 31.7079 37.8296 31.6234 37.751 31.6994C37.3471 32.0917 36.3548 32.3616 35.83 32.3616C35.3052 32.3616 35.1071 32.2453 35.1071 32.2453C35.6032 31.2864 36.2207 30.4702 36.2207 30.4702C34.9808 29.2654 37.0676 22.6419 42.589 22.6419C42.589 21.1055 42.4219 19.907 42.2189 19.0159C42.0874 19.047 41.0475 19.2852 41 19.0728C40.9578 18.8845 41.7659 18.4763 42.0443 18.342C41.773 17.4237 41.5027 16.9932 41.5027 16.9932C36.7702 18.442 37.7212 22.2492 36.5685 22.2492C35.8182 22.2492 35.2287 21.6818 35.0182 21.4771C32.1916 18.731 33.509 16.9133 33.509 13.264C33.5093 10.8055 32.5266 9.88477 30.7121 9.88477C28.8976 9.88477 28.2493 10.6481 28.2493 10.6481C28.2493 10.6481 30.7356 10.7264 30.7356 13.2638C30.7356 15.8013 27.6568 16.6536 27.6568 20.0234C27.6568 25.6333 34.5312 25.528 34.5312 29.9552M31.2539 13.264C31.2539 12.9383 31.2179 12.6443 31.1524 12.3788C31.1524 12.3788 31.6935 12.3514 31.6935 11.7115C31.6935 11.1841 31.3314 10.8243 31.2343 10.8243C31.1559 10.8243 31.1364 10.9051 30.9668 10.9051C30.5536 10.9051 30.5232 10.392 30.5232 10.392C30.5845 10.3899 30.6473 10.389 30.7117 10.389C31.895 10.389 32.9902 10.7371 32.9902 13.264C32.9902 14.1985 32.8992 15.0299 32.8189 15.7634C32.7394 16.4879 32.6657 17.1619 32.6869 17.82C32.6869 17.82 30.6265 17.584 30.6265 16.0778C30.6265 15.0998 31.2539 14.8618 31.2539 13.264ZM28.3588 40.9488C28.2262 40.9166 28.1118 40.8367 28.0234 40.7169C27.5753 41.3885 27.3864 41.9891 27.5511 42.5282C28.2406 44.7902 30.2943 46.4606 32.754 46.6831C30.4032 45.9892 28.6635 43.6092 28.3588 40.949V40.9488ZM27.8775 39.6121C27.7295 39.5095 27.6026 39.4135 27.5123 39.3297C27.3515 39.9066 27.2826 40.5039 27.3084 41.101C27.3134 41.225 27.3225 41.3477 27.3353 41.4693C27.4263 41.1069 27.6054 40.7282 27.8622 40.3421C27.8126 40.1161 27.8205 39.859 27.8777 39.6121H27.8775ZM27.9935 39.2669C28.0555 39.1297 28.1333 39.0033 28.2261 38.8967C28.3005 38.8112 28.3798 38.7436 28.4642 38.6931C28.6879 37.6802 29.1552 36.7776 29.838 36.0956C28.8182 36.8001 28.0368 37.8044 27.6259 38.9701C27.6804 39.0428 27.8254 39.1523 27.9935 39.2669ZM36.8146 44.4673C36.3056 44.4124 35.6245 44.2817 35.3273 44.1816C34.9953 44.07 34.7002 43.8008 34.5378 43.4603C34.4549 43.286 34.4079 43.0975 34.4001 42.9057C34.3946 42.77 34.4079 42.6204 34.4489 42.4585C32.5827 41.9055 30.6059 41.1373 29.2298 40.4233C29.1828 40.5076 29.1273 40.5873 29.0638 40.6609C28.9604 40.7799 28.844 40.8663 28.7244 40.9156C28.8535 42.0283 29.2513 43.1185 29.8843 44.0683C30.7241 45.3283 31.8681 46.1918 33.1037 46.4638C33.5418 46.5596 34.1143 46.6794 34.6267 46.5691C36.5262 46.1605 38.0743 44.8838 38.8312 43.2047C38.7425 43.2201 38.6429 43.2289 38.5358 43.2323C38.1026 44.4643 37.1912 44.5077 36.8146 44.4673ZM38.9409 38.7825C38.6639 38.0775 37.738 37.5775 36.5183 37.3091C34.2635 36.8138 31.3018 37.632 29.4173 39.1725C29.4896 39.4536 29.4682 39.7887 29.3709 40.0944C30.7289 40.8038 32.7039 41.5719 34.5672 42.1228C35.0056 41.1444 35.8453 40.9579 36.5002 41.1168C36.8285 41.1968 37.159 41.2691 37.4909 41.3333L37.7332 41.383C38.0444 41.4538 38.3176 41.6545 38.4813 41.9345C38.5973 42.1323 38.7039 42.4452 38.6312 42.876C38.8602 42.8628 38.971 42.8256 38.9966 42.7961C39.241 42.1187 39.36 41.3861 39.3278 40.6257C39.3024 39.9949 39.1717 39.3724 38.9409 38.7823V38.7825ZM34.8698 43.3105C35.0127 43.6105 35.2617 43.7838 35.4469 43.8457C35.6879 43.9269 36.3251 44.0568 36.8545 44.1134C37.4352 44.1759 37.8891 43.8618 38.148 43.2275C37.9536 43.2167 37.7456 43.1945 37.5302 43.1654C37.4898 43.2931 37.4385 43.4203 37.3723 43.5333C37.3221 43.6186 37.2105 43.6481 37.1227 43.5995C37.035 43.5509 37.0046 43.4423 37.0546 43.357C37.0985 43.2822 37.1348 43.1971 37.1647 43.1094C37.0512 43.0905 36.9369 43.0697 36.8238 43.0484C36.785 43.1958 36.7406 43.3359 36.6939 43.4407C36.6532 43.5306 36.5454 43.5715 36.4527 43.5324C36.3602 43.4933 36.3178 43.3887 36.3583 43.2988C36.3583 43.2988 36.3583 43.2988 36.3583 43.2986C36.396 43.2145 36.4321 43.1003 36.4653 42.9765C36.406 42.9637 36.3472 42.9511 36.289 42.9383C36.2276 42.9249 36.1646 42.9105 36.1019 42.8956C36.0677 43.0037 36.028 43.1101 35.983 43.2145C35.9441 43.3048 35.8361 43.347 35.7432 43.309C35.6503 43.271 35.6064 43.1667 35.6457 43.0764C35.6835 42.9898 35.7169 42.9016 35.7457 42.8118C35.4288 42.7334 35.1134 42.6496 34.7996 42.5605C34.7219 42.8879 34.7893 43.1437 34.8692 43.3105H34.8698ZM38.2594 42.876C38.3344 42.5151 38.2533 42.2639 38.1631 42.1102C38.0499 41.9163 37.8624 41.7773 37.6504 41.7291L37.4184 41.6816C37.0811 41.6162 36.7454 41.5428 36.4117 41.4616C35.7726 41.3066 35.2241 41.591 34.9213 42.2251C35.2254 42.3111 35.531 42.3922 35.838 42.468C35.8861 42.2422 35.8964 42.0854 35.8964 42.0826C35.9027 41.9847 35.9891 41.9102 36.0898 41.9157C36.1904 41.9213 36.2673 42.0051 36.2615 42.1028C36.2615 42.103 36.2615 42.1033 36.2615 42.1035C36.261 42.1163 36.2491 42.2959 36.1936 42.5523C36.2528 42.5659 36.3121 42.5796 36.3703 42.592C36.4302 42.6053 36.4891 42.6181 36.5471 42.63C36.5992 42.3801 36.6328 42.1678 36.6338 42.1634C36.65 42.0664 36.7442 42.0006 36.844 42.0166C36.9423 42.0322 37.0096 42.1211 36.9959 42.217C36.9932 42.234 36.9592 42.4468 36.9056 42.7017C37.0283 42.7249 37.1445 42.7453 37.2548 42.7636C37.2954 42.5481 37.3053 42.3766 37.3053 42.3734C37.3103 42.2754 37.3959 42.1999 37.4969 42.2046C37.5976 42.2092 37.6752 42.2922 37.6707 42.3899V42.3903C37.6701 42.4049 37.6602 42.5849 37.6167 42.8165C37.8702 42.8498 38.0829 42.8682 38.2596 42.876H38.2594ZM28.8438 38.8815C28.7627 38.8672 28.6019 38.8683 28.4411 39.0381C28.1864 39.3062 28.0669 39.6695 28.0853 40.1174C28.0904 40.2316 28.1068 40.2955 28.14 40.3875C28.1993 40.5501 28.3421 40.6578 28.4462 40.6761C28.57 40.6982 28.7099 40.6279 28.8404 40.4778C29.1256 40.1491 29.2485 39.5462 29.1086 39.1616C29.0506 39.001 28.9566 38.9017 28.8438 38.8817V38.8815ZM24.1126 45.9772C24.5739 46.2728 25.0627 46.5389 25.0627 46.5389L24.8916 46.9695C24.8277 46.7085 24.5614 46.5669 24.2176 46.3602L23.0922 47.9414C22.9548 48.1322 22.6867 48.5496 22.6652 48.7122C22.6652 48.7122 22.4805 48.5984 22.3119 48.4762C22.1356 48.3487 21.9683 48.2306 21.9683 48.2306C22.136 48.1909 22.4258 47.7757 22.6003 47.5456L23.6952 46.0276C23.2852 45.7195 23.125 45.6591 22.8352 45.6444L23.2249 45.3604C23.2249 45.3604 23.5994 45.6485 24.1124 45.9772M41.9462 51.3338L41.9802 51.37C41.9483 51.3683 41.922 51.3843 41.8879 51.403L41.9867 51.5874C42.006 51.6215 42.0332 51.6734 42.0512 51.6771C42.0512 51.6771 42.03 51.6888 42.0048 51.7014C41.9827 51.712 41.9617 51.7203 41.9617 51.7203C41.9621 51.6974 41.9544 51.679 41.9281 51.6267L41.8247 51.4332C41.79 51.4501 41.752 51.4669 41.7419 51.4942L41.7331 51.4406C41.7331 51.4406 41.7843 51.4165 41.8394 51.3891C41.8753 51.3711 41.9109 51.3526 41.9462 51.3338ZM24.8408 49.8996C24.059 49.5372 23.9552 48.7002 24.34 47.9168C24.7268 47.13 25.4636 46.6873 26.2417 47.0486C27.0196 47.4096 27.1293 48.2445 26.7424 49.0313C26.3576 49.8148 25.6225 50.2623 24.8408 49.8996ZM26.13 47.2757C25.6301 47.0438 25.2371 47.5925 24.9406 48.1958C24.6442 48.7988 24.4503 49.4446 24.9504 49.6767C25.4502 49.9083 25.8453 49.356 26.1418 48.7528C26.4383 48.1496 26.6298 47.5073 26.13 47.2757ZM28.339 47.8576C28.6568 47.9449 28.9766 48.0256 29.2979 48.0997L29.2521 48.5595C29.1103 48.3606 29.0453 48.312 28.5941 48.2002L28.0469 49.9876C28.003 50.1513 27.7848 50.7703 27.8546 50.8865C27.8546 50.8865 27.7026 50.8552 27.4574 50.789C27.1815 50.7147 27.052 50.6644 27.052 50.6644C27.1936 50.574 27.3714 50.0449 27.4295 49.8297L27.9794 48.0304C27.512 47.8788 27.4032 47.8684 27.1798 47.9692L27.4507 47.577C27.4507 47.577 27.756 47.6967 28.3388 47.8573M30.5196 48.332C30.8558 48.3806 31.1933 48.4204 31.5315 48.4518L31.5512 48.9132C31.3564 48.745 31.2831 48.6903 30.7688 48.6275L30.471 50.4631C30.45 50.6312 30.3393 51.2697 30.425 51.3755C30.425 51.3755 30.2445 51.3563 29.9954 51.3223C29.7462 51.2879 29.593 51.2537 29.593 51.2537C29.7147 51.1614 29.8158 50.5569 29.837 50.3886L30.1423 48.5302C29.6964 48.4438 29.6048 48.477 29.3908 48.5977L29.5848 48.1611C29.5848 48.1611 30.0011 48.2558 30.5196 48.3322M32.4517 50.0773L32.4124 51.3108C33.078 51.3194 33.5338 51.2784 33.7368 50.9977L33.6349 51.5581C33.6349 51.5581 33.2661 51.5654 32.7264 51.5581C32.1331 51.55 31.6674 51.5123 31.6674 51.5123C31.7662 51.4174 31.7906 50.8163 31.7917 50.6472L31.8459 49.4365C31.8482 49.1141 31.8786 48.5932 31.7671 48.4837C32.2494 48.5161 32.188 48.5155 32.631 48.532C33.211 48.5545 33.5393 48.5376 33.5393 48.5376L33.6122 49.0003C33.3857 48.8168 33.0463 48.7951 32.4923 48.7919L32.4618 49.8274L33.3128 49.8321C33.3895 49.833 33.3943 49.8744 33.3941 49.9574C33.3932 50.0392 33.392 50.0827 33.3111 50.082L32.4515 50.0772M36.1686 50.4485C36.2179 50.8973 36.2665 51.2198 36.3718 51.2788C36.3455 51.3251 36.2619 51.3861 36.1513 51.3976C36.0177 51.4113 35.9168 51.3475 35.8243 51.2434L34.3152 49.5613L34.3721 50.6314C34.3904 50.7996 34.4102 51.4371 34.518 51.5224L34.0151 51.5444C34.1027 51.4393 34.0794 50.832 34.0609 50.6633L33.9897 49.4558C33.9712 49.2876 33.939 48.6195 33.8308 48.5352L34.2919 48.5189L35.8386 50.3037L35.7098 49.2767C35.6913 49.108 35.5972 48.4961 35.4933 48.411C35.4933 48.411 35.5488 48.4056 35.7365 48.381C35.9239 48.3561 35.992 48.343 35.992 48.343C35.9052 48.4482 36.0059 49.0759 36.0246 49.2444L36.1688 50.4485M39.0042 49.8121C39.0578 50.0208 39.1641 50.5571 39.3219 50.6622C39.3219 50.6622 39.0832 50.7293 38.9372 50.7729C38.8073 50.8116 38.5213 50.8837 38.5213 50.8837C38.5889 50.7679 38.4385 50.1242 38.3968 49.9635L38.2535 49.4033L37.2946 49.6319L37.4038 50.2014C37.4352 50.3854 37.535 51.0052 37.6644 51.0808C37.6644 51.0808 37.5302 51.1077 37.2507 51.1635C37.0167 51.2104 36.8535 51.2352 36.8535 51.2352C36.9253 51.1194 36.8289 50.5447 36.7994 50.3613L36.567 49.1571C36.5246 48.9326 36.418 48.3648 36.2896 48.2983C36.2896 48.2983 36.414 48.2753 36.6878 48.2236C36.9617 48.1718 37.0958 48.1366 37.0958 48.1366C37.0283 48.2714 37.1473 48.8162 37.1798 49.007L37.2534 49.3892L38.197 49.1657L38.0953 48.7752C38.0398 48.5684 37.9227 48.0721 37.7916 47.98C37.7916 47.98 37.9211 47.9435 38.1837 47.871C38.4462 47.7991 38.5595 47.7577 38.5595 47.7577C38.5074 47.8955 38.6536 48.3787 38.7138 48.6279L39.0042 49.8115M40.7561 49.0978L39.8206 49.4539L39.853 49.9531C39.8738 50.1237 39.8746 50.2801 39.9129 50.3684C39.9289 50.4062 39.9579 50.4375 39.9949 50.4568C39.9949 50.4568 39.8974 50.4913 39.7366 50.5419C39.5758 50.5925 39.4875 50.6173 39.4875 50.6173C39.5435 50.5232 39.5571 50.394 39.5521 50.2323L39.4697 47.8654C39.4621 47.7794 39.4512 47.6988 39.422 47.6311C39.3961 47.5709 39.3522 47.5369 39.3215 47.5115C39.4279 47.4444 39.5613 47.3708 39.6969 47.3158C39.9119 47.2277 40.0026 47.2312 40.1594 47.4088L41.5321 49.0631C41.7816 49.3788 42.0023 49.5915 42.1458 49.6335C42.1458 49.6335 42.0056 49.6964 41.7415 49.8106C41.4777 49.9244 41.3031 49.9893 41.3031 49.9893C41.3188 49.9357 41.3207 49.879 41.2863 49.7935C41.2495 49.7016 41.1144 49.5455 41.0274 49.4274L40.7561 49.0976M40.5864 48.9017L39.7549 47.7824L39.8135 49.1883L40.5864 48.9017ZM44.6765 48.2395C44.4884 48.3628 44.3474 48.4571 44.3474 48.4571C44.3337 48.2771 43.976 47.8322 43.871 47.6973L43.0646 46.6751L43.7132 48.69C43.6881 48.73 43.6421 48.786 43.5994 48.8173C43.4713 48.9119 43.3468 48.8933 43.2331 48.8062L41.6975 47.5694L42.2349 48.5311C42.3663 48.7747 42.6197 49.2817 42.7903 49.3316C42.7903 49.3316 42.6842 49.3866 42.5501 49.4498C42.4787 49.4834 42.4072 49.5166 42.3354 49.5494C42.3652 49.4078 42.1157 48.9871 41.9705 48.7178L41.3724 47.6248C41.1909 47.2959 40.9908 46.9611 40.8189 46.8944C40.9519 46.8318 40.992 46.8127 41.1822 46.7215C41.3409 46.6455 41.4805 46.5711 41.4805 46.5711L43.2092 48.0002L42.5293 45.977C42.5293 45.977 42.6203 45.9169 42.7931 45.8048C42.9656 45.6926 43.1211 45.5812 43.1211 45.5812C43.1342 45.7621 43.4942 46.2235 43.6253 46.3885L44.3699 47.3193C44.5279 47.5108 44.823 47.9372 45.0333 47.9859C45.0329 47.9859 44.8646 48.1155 44.6761 48.2393M42.3301 51.2421L42.415 51.3477C42.44 51.3772 42.465 51.4137 42.4915 51.4245C42.4915 51.4245 42.4694 51.4399 42.448 51.454C42.4266 51.4677 42.4106 51.4788 42.4106 51.4788C42.4047 51.4504 42.3686 51.4061 42.357 51.3909L42.2668 51.2751L42.3406 51.5036C42.3371 51.5092 42.3328 51.514 42.3274 51.5179C42.308 51.5324 42.2938 51.5242 42.2809 51.5142L42.1031 51.3761L42.1725 51.4855C42.1889 51.5136 42.2189 51.5659 42.2425 51.5765L42.2135 51.5932C42.2044 51.5984 42.1952 51.6032 42.1861 51.608C42.1893 51.5804 42.1534 51.5259 42.1427 51.5072L42.0664 51.3831C42.0489 51.355 42.0214 51.3136 41.9968 51.3066C41.9968 51.3066 42.0206 51.2945 42.0441 51.2817C42.0588 51.2738 42.0737 51.2645 42.0825 51.2599L42.2792 51.4189L42.2034 51.192C42.2107 51.1887 42.2221 51.1818 42.2398 51.1714C42.2624 51.1579 42.2812 51.1457 42.2812 51.1457C42.2812 51.1733 42.3143 51.2207 42.3305 51.2421M26.9841 51.9183C27.1443 51.9754 27.3511 52.0451 27.3511 52.0451C27.1771 52.1678 27.0173 52.6556 26.9133 52.9203L26.5117 54.0027C26.4043 54.2965 26.2211 54.7223 26.2824 54.8743C26.2824 54.8743 26.0615 54.8002 25.8827 54.7387C25.7299 54.6856 25.6429 54.6575 25.4809 54.5902C25.6778 54.5396 25.8632 53.9033 25.9235 53.7434L26.1072 53.2382L25.145 52.8485L24.8666 53.4264C24.776 53.6269 24.5593 54.0815 24.6108 54.2239C24.6108 54.2239 24.4408 54.1566 24.192 54.0452C23.899 53.9141 23.8351 53.8794 23.8351 53.8794C24.0415 53.7808 24.1638 53.457 24.321 53.1298L24.8242 52.0468C24.9942 51.6762 25.1478 51.355 25.1364 51.1436C25.1364 51.1436 25.2262 51.1957 25.4737 51.3036C25.6707 51.3898 25.7715 51.4328 25.8821 51.476C25.7255 51.5366 25.5076 52.0829 25.3926 52.328L25.2451 52.6341L26.1851 53.0104L26.3293 52.6635C26.3969 52.4865 26.63 51.9569 26.5796 51.7756C26.5796 51.7754 26.7725 51.8432 26.9835 51.9183M28.0706 55.4312C27.2325 55.2169 26.966 54.4285 27.1884 53.6071C27.4118 52.7813 28.0463 52.2279 28.8802 52.4413C29.7138 52.6541 29.986 53.4393 29.7628 54.2652C29.5402 55.087 28.9087 55.6453 28.0706 55.4312ZM28.8158 52.6793C28.28 52.5425 28.0034 53.139 27.8321 53.7717C27.6604 54.404 27.5986 55.0603 28.1339 55.1975C28.6696 55.3341 28.9478 54.7331 29.1189 54.1008C29.2906 53.4684 29.3515 52.8163 28.816 52.6793H28.8158ZM30.3405 55.7219C30.3405 55.7219 30.3937 55.6659 30.4301 55.5519C30.4815 55.3916 30.5143 55.0833 30.5538 54.8428L30.7884 53.0799C30.2886 53.0189 30.1615 53.0539 29.9421 53.1802L30.148 52.7288C30.3037 52.7623 30.6486 52.7985 31.0681 52.85C31.3489 52.884 32.1851 52.9575 32.1851 52.9575L32.2136 53.4089C32.0291 53.2017 31.8377 53.183 31.4213 53.1511L31.1875 54.9198C31.1666 55.0844 31.0736 55.6557 31.1658 55.825C31.0653 55.8138 30.8987 55.7955 30.7591 55.782C30.6144 55.7677 30.4239 55.7356 30.3405 55.7219ZM34.3238 55.1096C34.3297 55.6403 33.8854 56.0246 33.202 56.0146C32.6707 56.0072 32.3927 55.7946 32.2864 55.7082L32.3971 55.2045C32.5621 55.5254 32.8355 55.7586 33.1434 55.7634C33.4651 55.7677 33.7181 55.5838 33.7234 55.2742C33.7266 55.0492 33.5992 54.9131 33.0627 54.6419C32.5486 54.384 32.3572 54.1265 32.3572 53.7428C32.3572 53.2202 32.825 52.955 33.3745 52.9548C33.7787 52.9544 34.0605 53.0747 34.2377 53.1667L34.1237 53.6281C33.8785 53.3099 33.6564 53.1921 33.3888 53.1885C33.1251 53.1843 32.9383 53.324 32.9401 53.5875C32.9418 53.8744 33.2667 54.0296 33.7049 54.2674C34.2087 54.5412 34.3211 54.816 34.324 55.1094M36.8123 53.4836C36.8318 53.5459 36.8436 53.6216 36.8497 53.6809C36.8549 53.7356 36.8575 53.8082 36.8509 53.8768C36.8364 54.0489 36.7524 54.2487 36.6135 54.3894C36.4014 54.6048 36.1248 54.7118 35.7581 54.7285C35.6167 54.737 35.5828 54.6949 35.5734 54.5959L35.5724 54.5742C35.5724 54.5742 35.5694 54.5359 35.6003 54.534L35.6358 54.5305C35.7442 54.5175 35.9048 54.4847 36.0338 54.3321C36.1574 54.1753 36.1997 53.9669 36.1782 53.7426C36.1553 53.5098 36.0834 53.342 35.9221 53.2213C35.7823 53.117 35.6179 53.083 35.4486 53.096C35.4486 53.096 35.3807 53.1016 35.3054 53.1133C35.3054 53.1133 35.2611 53.117 35.2649 53.159L35.4465 54.9874C35.4624 55.1485 35.5074 55.715 35.6432 55.8318C35.6432 55.8318 35.4887 55.8478 35.1974 55.8709C34.9751 55.8887 34.8021 55.8928 34.8021 55.8928C34.8605 55.7525 34.8507 55.545 34.8362 55.3035L34.6954 53.8616C34.6794 53.6965 34.6508 53.1311 34.5123 52.9913C34.5123 52.9913 34.8847 52.9377 35.5738 52.8745C35.9342 52.8413 36.2293 52.886 36.4838 53.0534C36.6504 53.1624 36.765 53.3213 36.8121 53.4833M39.6315 54.0728C39.779 54.7066 39.4728 55.246 38.7944 55.411C38.3174 55.5269 37.6308 55.3569 37.439 54.544L37.2055 53.5843C37.1441 53.3157 37.0436 52.84 36.8831 52.716C36.8831 52.716 37.0623 52.6912 37.3431 52.6406C37.6237 52.5896 37.7542 52.5594 37.7542 52.5594C37.6804 52.6723 37.7578 53.117 37.8311 53.4434L38.1291 54.6634C38.1821 54.887 38.2573 55.0401 38.3865 55.1304C38.482 55.1975 38.6099 55.2158 38.7427 55.1923C38.8638 55.1704 38.9897 55.1038 39.0557 54.9848C39.1257 54.8599 39.1254 54.679 39.0716 54.4556L38.7371 53.2358C38.6457 52.8999 38.5402 52.4796 38.4269 52.4094C38.4269 52.4094 38.5631 52.3734 38.8214 52.3017C39.017 52.2476 39.1334 52.2147 39.2177 52.1858C39.1406 52.3695 39.3243 52.9327 39.3633 53.0938L39.6313 54.0731M42.6785 53.8231C42.7443 53.8475 42.8149 53.8644 42.8744 53.8398C42.8677 53.8796 42.8292 53.959 42.7649 54.0231C42.4905 54.2963 42.233 54.2494 42.1458 54.2157C41.6727 54.0403 40.8815 53.3589 40.8489 53.2847C40.8489 53.2847 40.8407 53.2653 40.8613 53.2571L40.8899 53.2449C41.0135 53.1948 41.1537 53.0591 41.2091 52.9307C41.2976 52.7423 41.2825 52.5733 41.1927 52.3662C41.0997 52.1508 40.9368 52.0153 40.8094 51.9788C40.6207 51.9246 40.4801 51.9676 40.3942 52.0006C40.3942 52.0006 40.2811 52.0438 40.2473 52.0768C40.2473 52.0768 40.2246 52.0952 40.251 52.1701L40.8489 53.829C40.9397 54.073 41.0973 54.549 41.2402 54.6293C41.2402 54.6293 41.0788 54.6912 40.834 54.777C40.589 54.863 40.44 54.9029 40.44 54.9029C40.4898 54.7175 40.3013 54.2138 40.2538 54.0726L39.8673 52.9524C39.7706 52.6823 39.5943 52.1982 39.4506 52.1208C39.4506 52.1208 39.7328 52.044 40.3671 51.785C40.7044 51.6473 41.0313 51.5885 41.3262 51.6723C41.5052 51.7233 41.6261 51.8108 41.7251 51.9502C41.7629 52.004 41.7908 52.057 41.8148 52.1119C41.8367 52.1628 41.852 52.2214 41.8619 52.2757C41.8932 52.4452 41.8669 52.625 41.7661 52.7948C41.7661 52.7948 41.6751 52.9655 41.4813 53.0997C41.4813 53.0997 42.1044 53.6127 42.6786 53.8229" fill="#002156"/>
</g>
<defs>
<clipPath id="clip0_318_902">
<rect width="23.0656" height="46.1311" fill="white" transform="translate(21.9678 9.88477)"/>
</clipPath>
</defs>
</svg>
