<svg width="28" height="28" viewBox="0 0 28 28" fill="none" xmlns="http://www.w3.org/2000/svg">
<path d="M25.9087 5.86745C24.8631 4.12473 23.0041 2.96289 20.9128 2.96289H6.97096C4.87966 2.96289 3.02077 4.12473 1.97509 5.86745C0.697102 8.19112 0 10.7472 0 13.4194C0 19.8094 2.55604 25.0376 5.80912 25.0376C7.55185 25.0376 8.94605 23.411 9.99168 20.0417C10.1078 19.577 10.5726 19.2285 11.1535 19.2285H16.8465C17.3112 19.2285 17.776 19.577 18.0083 20.0417C19.0539 23.411 20.4481 25.0376 22.1909 25.0376C25.444 25.0376 28 19.8094 28 13.4194C27.8838 10.7472 27.1867 8.19112 25.9087 5.86745ZM22.0747 22.7139C21.7261 22.7139 20.9128 21.7845 20.0996 19.3446C19.6348 17.8343 18.2406 16.9048 16.7303 16.9048H11.1535C9.64316 16.9048 8.24895 17.9504 7.78422 19.3446C6.97096 21.7845 6.15765 22.7139 5.80912 22.7139C4.64729 22.7139 2.32367 19.1123 2.32367 13.4194C2.32367 11.2119 2.90456 9.00444 3.95024 7.02934C4.64734 5.98372 5.80918 5.28662 6.97102 5.28662H20.9129C22.0748 5.28662 23.2366 5.98372 23.9337 7.02934C24.9793 9.00444 25.5603 11.2119 25.5603 13.4194C25.5602 19.1123 23.2365 22.7139 22.0747 22.7139Z" fill="#686969"/>
<path d="M10.5002 10.5003H9.33359V9.33364C9.33359 8.63364 8.86694 8.16699 8.16694 8.16699C7.46694 8.16699 7.00029 8.63364 7.00029 9.33364V10.5003H5.83364C5.13364 10.5003 4.66699 10.9669 4.66699 11.6669C4.66699 12.3669 5.13364 12.8336 5.83364 12.8336H7.00024V14.0003C7.00024 14.7003 7.46689 15.1669 8.16689 15.1669C8.86689 15.1669 9.33354 14.7003 9.33354 14.0003V12.8336H10.5002C11.2002 12.8336 11.6669 12.367 11.6669 11.667C11.6669 10.9669 11.2002 10.5003 10.5002 10.5003Z" fill="#686969"/>
<path d="M21.5835 11.667C22.55 11.667 23.3335 10.8835 23.3335 9.91699C23.3335 8.95049 22.55 8.16699 21.5835 8.16699C20.617 8.16699 19.8335 8.95049 19.8335 9.91699C19.8335 10.8835 20.617 11.667 21.5835 11.667Z" fill="#686969"/>
<path d="M18.0835 15.167C19.05 15.167 19.8335 14.3835 19.8335 13.417C19.8335 12.4505 19.05 11.667 18.0835 11.667C17.117 11.667 16.3335 12.4505 16.3335 13.417C16.3335 14.3835 17.117 15.167 18.0835 15.167Z" fill="#686969"/>
</svg>
