<svg width="20" height="20" viewBox="0 0 20 20" fill="none" xmlns="http://www.w3.org/2000/svg">
<path fill-rule="evenodd" clip-rule="evenodd" d="M10.8337 10.6978V11.667C10.8337 12.1278 10.4612 12.5003 10.0003 12.5003C9.53949 12.5003 9.16699 12.1278 9.16699 11.667V10.0003C9.16699 9.53949 9.53949 9.16699 10.0003 9.16699C10.6895 9.16699 11.2503 8.60616 11.2503 7.91699C11.2503 7.22783 10.6895 6.66699 10.0003 6.66699C9.31116 6.66699 8.75033 7.22783 8.75033 7.91699C8.75033 8.37783 8.37783 8.75033 7.91699 8.75033C7.45616 8.75033 7.08366 8.37783 7.08366 7.91699C7.08366 6.30866 8.39199 5.00033 10.0003 5.00033C11.6087 5.00033 12.917 6.30866 12.917 7.91699C12.917 9.23366 12.0337 10.3362 10.8337 10.6978ZM10.0003 15.0003C9.53949 15.0003 9.16699 14.6278 9.16699 14.167C9.16699 13.7062 9.53949 13.3337 10.0003 13.3337C10.4612 13.3337 10.8337 13.7062 10.8337 14.167C10.8337 14.6278 10.4612 15.0003 10.0003 15.0003ZM10.0003 1.66699C5.40533 1.66699 1.66699 5.40533 1.66699 10.0003C1.66699 14.5953 5.40533 18.3337 10.0003 18.3337C14.5953 18.3337 18.3337 14.5953 18.3337 10.0003C18.3337 5.40533 14.5953 1.66699 10.0003 1.66699Z" fill="#3C3C3C"/>
</svg>
