<svg width="26" height="26" viewBox="0 0 26 26" fill="none" xmlns="http://www.w3.org/2000/svg">
<g clip-path="url(#clip0_345_932)">
<g clip-path="url(#clip1_345_932)">
<path d="M13.0035 -0.00292969C5.81273 -0.00292969 -0.0166016 5.8264 -0.0166016 13.0172C-0.0166016 20.208 5.81273 26.0372 13.0035 26.0372C20.1943 26.0372 26.0236 20.208 26.0236 13.0172C26.0236 5.8264 20.1943 -0.00292969 13.0035 -0.00292969ZM21.073 9.57396L21.9136 6.85589C23.0465 8.4979 23.7009 10.4223 23.8041 12.4145L21.4836 10.7797C21.0999 10.5092 20.9341 10.0224 21.073 9.57396ZM15.8166 2.54852H15.808L13.6413 4.12584C13.2615 4.40194 12.7471 4.40194 12.3673 4.12584L10.2006 2.54852C12.0379 2.03868 13.9793 2.03868 15.8166 2.54852ZM4.08627 6.85696L4.92695 9.57396C5.06579 10.0224 4.89999 10.5092 4.51639 10.7797L2.19589 12.4145C2.29902 10.4226 2.95349 8.49856 4.08627 6.85696ZM4.34089 19.4821L7.31682 19.4919C7.7866 19.4929 8.20224 19.7965 8.346 20.2437L9.282 23.1611C7.31459 22.437 5.59859 21.1593 4.34089 19.4821ZM16.719 23.1611L17.654 20.2437C17.7976 19.7968 18.2126 19.4933 18.682 19.4919L21.659 19.4821C20.402 21.1595 18.6863 22.4373 16.719 23.1611ZM22.933 17.3111L18.6755 17.3252C17.2659 17.327 16.0191 18.2397 15.5913 19.5829L14.2533 23.7537C13.421 23.8592 12.5788 23.8592 11.7465 23.7537L10.4086 19.5818C9.9803 18.2387 8.73301 17.3264 7.32327 17.3252L3.06684 17.3122C2.73925 16.5564 2.49971 15.7654 2.3529 14.9549L5.76434 12.551C6.91748 11.7416 7.41579 10.28 6.99715 8.93477L5.76759 4.95677C6.38895 4.39214 7.07388 3.90169 7.80859 3.49534L11.0889 5.87866C12.2275 6.70934 13.7723 6.70934 14.9109 5.87866L18.1912 3.49534C18.9258 3.90195 19.6107 4.39234 20.2322 4.95677L19.0027 8.93477C18.5841 10.28 19.0823 11.7416 20.2355 12.551L23.6469 14.9549C23.5002 15.7651 23.2607 16.5557 22.933 17.3111Z" fill="#686969"/>
<path d="M16.6679 9.99204L14.5912 8.48403C13.6431 7.79178 12.3563 7.79178 11.4084 8.48403L9.33161 9.99204C8.37809 10.681 7.98021 11.9079 8.34792 13.0254L9.14092 15.4661C9.50335 16.5811 10.5436 17.3351 11.716 17.3327H14.2835C15.4571 17.3328 16.4973 16.577 16.8597 15.4607L17.6516 13.0199C18.017 11.9041 17.6194 10.68 16.6679 9.99204ZM15.5911 12.3504L14.7991 14.7912C14.7268 15.0148 14.5185 15.1661 14.2834 15.166H11.7159C11.4813 15.1657 11.2736 15.0144 11.2014 14.7912L10.4084 12.3494C10.3355 12.1258 10.4151 11.8806 10.6056 11.7427L12.6813 10.2369C12.8712 10.0988 13.1284 10.0988 13.3183 10.2369L15.395 11.7449C15.5846 11.883 15.6637 12.1274 15.5911 12.3504Z" fill="#686969"/>
</g>
</g>
<defs>
<clipPath id="clip0_345_932">
<rect width="26" height="26" fill="white"/>
</clipPath>
<clipPath id="clip1_345_932">
<rect width="26" height="26" fill="white"/>
</clipPath>
</defs>
</svg>
