<svg width="22" height="22" viewBox="0 0 22 22" fill="none" xmlns="http://www.w3.org/2000/svg">
<g clip-path="url(#clip0_151_1214)">
<path d="M16.5 2.26875C14.8844 1.27187 13.0281 0.6875 11 0.6875V2.26875H16.5Z" fill="#ED4C5C"/>
<path d="M11 3.8498H18.425C17.8406 3.26543 17.1875 2.71543 16.5 2.26855H11V3.8498Z" fill="white"/>
<path d="M11 5.43135H19.6969C19.3187 4.84697 18.9063 4.33135 18.4594 3.8501H11V5.43135Z" fill="#ED4C5C"/>
<path d="M11 7.0124H20.5219C20.2812 6.4624 20.0062 5.9124 19.6969 5.43115H11V7.0124Z" fill="white"/>
<path d="M11 8.59395H21.0375C20.9 8.04395 20.7281 7.52832 20.5219 7.0127H11V8.59395Z" fill="#ED4C5C"/>
<path d="M11 10.2092H21.2781C21.2438 9.65918 21.1406 9.14355 21.0375 8.62793H11V10.2092Z" fill="white"/>
<path d="M21.2781 10.2095H11V11.0001H0.6875C0.6875 11.2751 0.6875 11.5157 0.721875 11.7907H21.2781C21.3125 11.5157 21.3125 11.2751 21.3125 11.0001C21.3125 10.7251 21.3125 10.4501 21.2781 10.2095Z" fill="#ED4C5C"/>
<path d="M0.962305 13.3718H21.0373C21.1748 12.8562 21.2436 12.3405 21.2779 11.7905H0.72168C0.756055 12.3062 0.824805 12.8562 0.962305 13.3718Z" fill="white"/>
<path d="M1.47852 14.9533H20.5223C20.7285 14.4377 20.9004 13.9221 21.0379 13.3721H0.962891C1.10039 13.9221 1.27227 14.4377 1.47852 14.9533Z" fill="#ED4C5C"/>
<path d="M2.30352 16.5344H19.6973C20.0066 16.0187 20.2816 15.5031 20.5223 14.9531H1.47852C1.71914 15.5031 1.99414 16.0187 2.30352 16.5344Z" fill="white"/>
<path d="M3.54023 18.1154H18.459C18.9059 17.6342 19.3527 17.0842 19.6965 16.5342H2.30273C2.64648 17.1186 3.09336 17.6342 3.54023 18.1154Z" fill="#ED4C5C"/>
<path d="M5.46602 19.697H16.5348C17.2566 19.2501 17.8754 18.7001 18.4598 18.1157H3.54102C4.12539 18.7345 4.77852 19.2501 5.46602 19.697Z" fill="white"/>
<path d="M11.0002 21.3124C13.0283 21.3124 14.9189 20.728 16.5346 19.6968H5.46582C7.08145 20.728 8.97207 21.3124 11.0002 21.3124Z" fill="#ED4C5C"/>
<path d="M5.5 2.26875C4.77812 2.71563 4.125 3.26562 3.54063 3.85C3.05938 4.33125 2.64687 4.88125 2.30312 5.43125C1.99375 5.94688 1.68438 6.4625 1.47813 7.0125C1.27188 7.52812 1.1 8.04375 0.9625 8.59375C0.825 9.10938 0.75625 9.625 0.721875 10.175C0.6875 10.45 0.6875 10.725 0.6875 11H11V0.6875C8.97188 0.6875 7.11562 1.27187 5.5 2.26875Z" fill="#428BC1"/>
<path d="M8.59395 1.03125L8.76582 1.54688H9.28145L8.86895 1.89062L9.00645 2.40625L8.59395 2.09687L8.18145 2.40625L8.31895 1.89062L7.90645 1.54688H8.42207L8.59395 1.03125ZM9.96895 3.09375L10.1408 3.60938H10.6564L10.2439 3.95312L10.3814 4.46875L9.96895 4.15938L9.55645 4.46875L9.69395 3.95312L9.28145 3.60938H9.79707L9.96895 3.09375ZM7.21895 3.09375L7.39082 3.60938H7.90645L7.49395 3.95312L7.63145 4.46875L7.21895 4.15938L6.80645 4.46875L6.94395 3.95312L6.53145 3.60938H7.04707L7.21895 3.09375ZM8.59395 5.15625L8.76582 5.67188H9.28145L8.86895 6.01562L9.00645 6.53125L8.59395 6.22188L8.18145 6.53125L8.31895 6.01562L7.90645 5.67188H8.42207L8.59395 5.15625ZM5.84395 5.15625L6.01582 5.67188H6.53145L6.11895 6.01562L6.25645 6.53125L5.84395 6.22188L5.43145 6.53125L5.56895 6.01562L5.15645 5.67188H5.67207L5.84395 5.15625ZM3.09395 5.15625L3.26582 5.67188H3.78145L3.36895 6.01562L3.50645 6.53125L3.09395 6.22188L2.68145 6.53125L2.81895 6.01562L2.40645 5.67188H2.92207L3.09395 5.15625ZM9.96895 7.21875L10.1408 7.73438H10.6564L10.2439 8.07812L10.3814 8.59375L9.96895 8.28438L9.55645 8.59375L9.69395 8.07812L9.28145 7.73438H9.79707L9.96895 7.21875ZM7.21895 7.21875L7.39082 7.73438H7.90645L7.49395 8.07812L7.63145 8.59375L7.21895 8.28438L6.80645 8.59375L6.94395 8.07812L6.53145 7.73438H7.04707L7.21895 7.21875ZM4.46895 7.21875L4.64082 7.73438H5.15645L4.74395 8.07812L4.88144 8.59375L4.46895 8.28438L4.05645 8.59375L4.19394 8.07812L3.78145 7.73438H4.29707L4.46895 7.21875ZM8.59395 9.28125L8.76582 9.79688H9.28145L8.86895 10.1406L9.00645 10.6562L8.59395 10.3469L8.18145 10.6562L8.31895 10.1406L7.90645 9.79688H8.42207L8.59395 9.28125ZM5.84395 9.28125L6.01582 9.79688H6.53145L6.11895 10.1406L6.25645 10.6562L5.84395 10.3469L5.43145 10.6562L5.56895 10.1406L5.15645 9.79688H5.67207L5.84395 9.28125ZM3.09395 9.28125L3.26582 9.79688H3.78145L3.36895 10.1406L3.50645 10.6562L3.09395 10.3469L2.68145 10.6562L2.81895 10.1406L2.40645 9.79688H2.92207L3.09395 9.28125ZM4.05645 4.46875L4.46895 4.15938L4.88144 4.46875L4.70957 3.95312L5.12207 3.60938H4.60645L4.46895 3.09375L4.29707 3.60938H3.81582L4.22832 3.91875L4.05645 4.46875ZM1.30645 8.59375L1.71895 8.28438L2.13145 8.59375L1.95957 8.07812L2.37207 7.73438H1.89082L1.71895 7.21875L1.54707 7.73438H1.20332C1.20332 7.76875 1.16895 7.80312 1.16895 7.8375L1.44395 8.04375L1.30645 8.59375Z" fill="white"/>
</g>
<defs>
<clipPath id="clip0_151_1214">
<rect width="22" height="22" fill="white"/>
</clipPath>
</defs>
</svg>
