<svg width="27" height="27" viewBox="0 0 27 27" fill="none" xmlns="http://www.w3.org/2000/svg">
<mask id="mask0_350_1033" style="mask-type:alpha" maskUnits="userSpaceOnUse" x="0" y="0" width="27" height="27">
<path d="M0 0H26.5909V27H0V0Z" fill="white"/>
</mask>
<g mask="url(#mask0_350_1033)">
<path fill-rule="evenodd" clip-rule="evenodd" d="M13.2955 0C20.6385 0 26.5909 6.04401 26.5909 13.5C26.5909 20.9554 20.6385 27 13.2955 27C5.95244 27 0 20.9554 0 13.5C0 6.04401 5.95244 0 13.2955 0Z" fill="#2775CA"/>
</g>
<path fill-rule="evenodd" clip-rule="evenodd" d="M10.8032 22.8863C10.8032 23.2039 10.5582 23.3843 10.2558 23.2884C6.23586 21.9862 3.32129 18.1588 3.32129 13.6428C3.32129 9.12688 6.23586 5.29933 10.2558 3.99719C10.5582 3.90192 10.8032 4.08172 10.8032 4.39927V5.1832C10.8032 5.39459 10.6418 5.64342 10.4434 5.7123C7.26294 6.89816 4.98458 10.0005 4.98458 13.6374C4.98458 17.2743 7.26294 20.3773 10.4434 21.5625C10.6418 21.6368 10.8032 21.8801 10.8032 22.0923V22.8863Z" fill="white"/>
<path fill-rule="evenodd" clip-rule="evenodd" d="M14.1242 19.969C14.1242 20.2022 13.9366 20.3927 13.7072 20.3927H12.8781C12.6487 20.3927 12.4611 20.2022 12.4611 19.969V18.6351C10.6465 18.3864 9.76044 17.3538 9.52051 15.9511C9.47866 15.7125 9.66631 15.4956 9.90623 15.4956H10.8552C11.0533 15.4956 11.2202 15.6387 11.2619 15.8395C11.4393 16.6761 11.9137 17.3167 13.3682 17.3167C14.4423 17.3167 15.2037 16.7078 15.2037 15.7977C15.2037 14.8867 14.7551 14.5428 13.1805 14.2778C10.8552 13.9603 9.75515 13.2454 9.75515 11.3925C9.75515 9.96321 10.8189 8.85161 12.4664 8.61321V7.30555C12.4664 7.07252 12.6542 6.88184 12.8834 6.88184H13.7125C13.9419 6.88184 14.1295 7.07252 14.1295 7.30555V8.65034C15.4695 8.89426 16.3193 9.66667 16.5958 10.9478C16.6478 11.1917 16.4601 11.4189 16.2152 11.4189H15.3391C15.1514 11.4189 14.9951 11.2917 14.9378 11.1066C14.7032 10.2917 14.1295 9.94235 13.1336 9.94235C12.0335 9.94235 11.4651 10.4822 11.4651 11.2391C11.4651 12.0385 11.7886 12.4406 13.478 12.6899C15.7614 13.0075 16.94 13.6691 16.94 15.6443C16.94 17.1423 15.8449 18.3547 14.1295 18.6351V19.969H14.1242Z" fill="white"/>
<path fill-rule="evenodd" clip-rule="evenodd" d="M16.3355 23.2887C16.0333 23.3846 15.7881 23.2042 15.7881 22.8866V22.1033C15.7881 21.8703 15.9289 21.6534 16.1478 21.5736C19.3283 20.3878 21.6067 17.2854 21.6067 13.6485C21.6067 10.0116 19.3283 6.90925 16.1478 5.72339C15.9497 5.64914 15.7881 5.40584 15.7881 5.19367V4.41037C15.7881 4.09281 16.0333 3.90764 16.3355 4.00767C20.3554 5.31057 23.27 9.13797 23.27 13.6539C23.265 18.159 20.3554 21.9812 16.3355 23.2887Z" fill="white"/>
</svg>
