<svg width="27" height="27" viewBox="0 0 27 27" fill="none" xmlns="http://www.w3.org/2000/svg">
<path d="M26.5931 16.7657C24.79 23.9979 17.465 28.3993 10.2319 26.5958C3.00187 24.7928 -1.39951 17.4673 0.404305 10.2357C2.20654 3.00266 9.5316 -1.39906 16.7624 0.403966C23.995 2.20699 28.3961 9.5333 26.5929 16.7658L26.593 16.7657H26.5931Z" fill="#50AF95"/>
<path fill-rule="evenodd" clip-rule="evenodd" d="M15.2085 15.0302C15.1131 15.0374 14.6199 15.0668 13.5197 15.0668C12.6447 15.0668 12.0234 15.0406 11.8055 15.0302C8.42391 14.8815 5.89986 14.2928 5.89986 13.588C5.89986 12.8832 8.42391 12.2954 11.8055 12.1442V14.444C12.0266 14.4599 12.6598 14.4973 13.5349 14.4973C14.5849 14.4973 15.1107 14.4535 15.2054 14.4448V12.1458C18.5798 12.2962 21.0982 12.8848 21.0982 13.588C21.0982 14.2912 18.5806 14.8799 15.2054 15.0294L15.2085 15.0302ZM15.2085 11.908V9.85007H19.9178V6.71191H7.09626V9.85007H11.8047V11.9072C7.97764 12.083 5.09961 12.8411 5.09961 13.7495C5.09961 14.6579 7.97764 15.4152 11.8047 15.5918V22.1863H15.2077V15.5894C19.026 15.4136 21.8993 14.6563 21.8993 13.7487C21.8993 12.8411 19.0284 12.0838 15.2077 11.9072L15.2085 11.908Z" fill="white"/>
</svg>
