<svg width="27" height="27" viewBox="0 0 27 27" fill="none" xmlns="http://www.w3.org/2000/svg">
<path d="M21.6823 5.66671L20.9521 6.40806C22.6943 8.34257 23.6605 10.8691 23.6605 13.4904C23.6605 16.1118 22.6943 18.6383 20.9521 20.5728L21.6823 21.3142C23.6198 19.1803 24.6954 16.3842 24.6954 13.4818C24.6954 10.5794 23.6198 7.78332 21.6823 5.64941V5.66671Z" fill="#5A5564"/>
<path d="M6.32723 5.73056C8.23243 3.96158 10.7206 2.98058 13.3023 2.98058C15.884 2.98058 18.3722 3.96158 20.2774 5.73056L21.0075 4.98921C18.9059 3.02191 16.1522 1.92969 13.2938 1.92969C10.4354 1.92969 7.68165 3.02191 5.58008 4.98921L6.32723 5.73056Z" fill="#5A5564"/>
<path d="M5.64368 20.5803C3.90356 18.6462 2.9387 16.1213 2.9387 13.5017C2.9387 10.882 3.90356 8.35707 5.64368 6.42299L4.91356 5.68164C2.97607 7.81554 1.90039 10.6116 1.90039 13.514C1.90039 16.4164 2.97607 19.2125 4.91356 21.3464L5.64368 20.5803Z" fill="#5A5564"/>
<path d="M20.2681 21.2646C18.3629 23.0336 15.8747 24.0146 13.2931 24.0146C10.7114 24.0146 8.22321 23.0336 6.31801 21.2646L5.58789 22.006C7.68946 23.9733 10.4432 25.0655 13.3016 25.0655C16.16 25.0655 18.9137 23.9733 21.0153 22.006L20.2681 21.2646Z" fill="#5A5564"/>
<path d="M17.9052 11.0261C17.7592 9.47912 16.4449 8.96018 14.7827 8.80202V6.67188H13.4977V8.76248C13.1594 8.76248 12.8138 8.76248 12.4707 8.76248V6.67188H11.1954V8.81685H8.58887V10.2131C8.58887 10.2131 9.53802 10.1958 9.52342 10.2131C9.69456 10.1939 9.86632 10.243 10.0025 10.35C10.1387 10.4569 10.2287 10.6134 10.2535 10.7864V16.6579C10.2499 16.7189 10.2342 16.7785 10.2075 16.8333C10.1807 16.888 10.1434 16.9368 10.0978 16.9767C10.053 17.0173 10.0006 17.0483 9.94372 17.0678C9.88684 17.0874 9.82666 17.095 9.76679 17.0903C9.78383 17.1052 8.83224 17.0903 8.83224 17.0903L8.58887 18.6496H11.1711V20.8292H12.4561V18.6818H13.4831V20.8193H14.7705V18.6645C16.9414 18.531 18.4552 17.9874 18.645 15.9239C18.7984 14.2633 18.0293 13.522 16.8003 13.2229C17.5474 12.8498 18.0098 12.1579 17.9052 11.0261ZM16.1042 15.6669C16.1042 17.288 13.3687 17.1027 12.4974 17.1027V14.2262C13.3687 14.2287 16.1042 13.9742 16.1042 15.6669ZM15.508 11.6142C15.508 13.0969 13.2251 12.9165 12.4999 12.9165V10.302C13.2251 10.302 15.508 10.0697 15.508 11.6142Z" fill="#F09242"/>
<path d="M13.293 27C10.6636 26.9995 8.09344 26.2074 5.90738 24.7238C3.72133 23.2402 2.0176 21.1318 1.0116 18.6651C0.0055967 16.1984 -0.257492 13.4842 0.255593 10.8657C0.768679 8.24717 2.0349 5.84192 3.89415 3.95406C5.75341 2.0662 8.12221 0.780505 10.701 0.259525C13.2799 -0.261454 15.953 0.00568281 18.3823 1.02716C20.8116 2.04864 22.8881 3.77858 24.3492 5.99827C25.8103 8.21795 26.5904 10.8277 26.5909 13.4975C26.5912 15.2708 26.2475 17.0267 25.5793 18.6651C24.9112 20.3034 23.9317 21.7921 22.6968 23.0459C21.4619 24.2998 19.9958 25.2944 18.3823 25.9729C16.7688 26.6513 15.0394 27.0003 13.293 27ZM13.293 1.05272C10.8706 1.05468 8.50303 1.7858 6.48968 3.15368C4.47634 4.52156 2.90756 6.46479 1.98163 8.73777C1.0557 11.0107 0.814189 13.5114 1.28762 15.9237C1.76104 18.336 2.92816 20.5517 4.64144 22.2906C6.35473 24.0296 8.53728 25.2138 10.9132 25.6935C13.2892 26.1733 15.7519 25.9271 17.99 24.986C20.2282 24.0449 22.1414 22.4512 23.4877 20.4064C24.8341 18.3615 25.5532 15.9573 25.5541 13.4975C25.5548 11.8627 25.238 10.2437 24.622 8.7332C24.006 7.22271 23.1028 5.85033 21.9641 4.69453C20.8253 3.53873 19.4734 2.62218 17.9855 1.99729C16.4977 1.3724 14.9031 1.05142 13.293 1.05272Z" fill="#282138"/>
</svg>
